<svg width="37" height="49" viewBox="0 0 37 49" fill="none" xmlns="http://www.w3.org/2000/svg">
<path d="M37 37.4824L37 18.9824C37 8.76516 28.7173 0.482436 18.5 0.482435C8.28274 0.482433 1.13952e-05 8.76516 1.00554e-05 18.9824L7.62939e-06 37.4824L37 37.4824Z" fill="#0B477E"/>
<path d="M7.78945 37.4824C7.78945 31.3879 12.73 26.4473 18.8245 26.4473C24.919 26.4473 29.8596 31.3879 29.8596 37.4824L7.78945 37.4824Z" fill="#9EE2FF"/>
<path d="M7.78945 37.4824C7.78945 43.5769 12.73 48.5175 18.8245 48.5175C24.919 48.5175 29.8596 43.5769 29.8596 37.4824L7.78945 37.4824Z" fill="#FFDD55"/>
<path d="M18.5 22.5526C21.5472 22.5526 24.0175 20.0823 24.0175 17.0351C24.0175 13.9878 21.5472 11.5175 18.5 11.5175C15.4527 11.5175 12.9824 13.9878 12.9824 17.0351C12.9824 20.0823 15.4527 22.5526 18.5 22.5526Z" fill="#FAFAFF"/>
</svg>
